<?xml version="1.0" encoding="utf-8"?>
<svg version="1.2" xmlns="http://www.w3.org/2000/svg" viewBox="0 0 1516 1516" width="1516" height="1516">
  <style>
		.s0 { opacity: .99;fill: #1a3957 }
		.s1 { fill: #5395c6 }
		.s2 { fill: #357cb0 }
		.s3 { opacity: 1;fill: #f3c11a }
		.s4 { fill: #dfa125 }
		.s5 { fill: #ffffff }
	</style>
  <g id="Background">
    <path id="Path 0" class="s0" d="m1167 73l38 1 28 13 15 12 28 37 26 9 16 13 7 11 5 17v19l-4 14-17 23-8 17-17 18-24 13 1 3 28 13 20 17 10 19 3 26v280l-11 33 8 8 4 13-1 324-3 17-7 16-18 18v4l17 13 11 27 1 235-11 42-20 33-31 30-25 15-38 14-36 6-799-1-64-16-26-12-33-24-21-24-14-24-7-21-4-27 1-227 10-25 20-14-1-5-20-20-8-19-2-15v-270l4-18 6-11 21-17-26-31-5-23v-295l3-15 10-19 25-24 30-17 38-14 58-11 571-1 30-80 21-33 29-30 29-19 35-14 24-4h55z"/>
    <path id="Path 1" class="s1" d="m377 276h547l4 1v7l-9 75-3 58h-344l-125-5-96-11-70-16-22-8-28-16-8-10-1-11 18-22 15-10 49-20zm381 442l-58 20-22 12-126-2-129-9-82-13-72-21-22-10-19-13-9-12-4-15v-281l14 11 20 10 34 12 107 20 137 9 229 2 2 71h-121l-23 8-20 18h-90l-12 3-18 15-7 19 3 22 12 16 12 7 13 3h89l16 14 28 9h237l18-4v4l-6 5-20 2h-108zm-540 25l16 14 21 11 81 23 116 16 143 9-25 31-17 28-22 49-9 32-7 45v41l4 34 11 43-102-7-76-11-55-13-44-17-20-12-14-20-4-23v-262zm540 732h-385l-38-6-44-16-20-12-20-17-24-32-8-24-4-28 2-225 10 10 28 15 66 20 115 18 128 7 23 32 29 28 29 22 52 27 61 18z"/>
    <path id="Path 2" class="s2" d="M 1212 301 L 1229 301 L 1275 321 L 1296 342 L 1296 350 L 1292 357 L 1275 372 L 1233 389 L 1180 401 L 1118 408 L 1120 352 L 1133 304 L 1212 301 Z M 756 438 L 998 436 L 1130 428 L 1232 410 L 1270 397 L 1288 388 L 1299 378 L 1302 379 L 1302 642 L 1301 653 L 1295 667 L 1277 684 L 1234 702 L 1176 711 L 825 710 L 758 718 L 758.388 641.884 L 860.856 642.457 L 878.11 642.114 L 890.423 639.979 L 895 639 L 909 632 L 922 620 L 1009 620 L 1033 612 L 1044 600 L 1050 583 L 1048 563 L 1035 544 L 1013 535 L 923 535 L 906 519 L 876 509 L 756.293 509.788 L 756 438 Z M 248 718 L 325 743 L 406 757 L 508 766 L 623 768 L 640 771 L 635 779 L 615 795 L 506 792 L 383 780 L 318 768 L 267 752 L 249 742 L 241 734 L 240 727 L 248 718 Z M 1298 890 L 1301 926 L 1301 1027 L 1298 1042 L 1290 1055 L 1274 1068 L 1245 1082 L 1203 1095 L 1134 1108 L 1064 1100 L 818 1100 L 796 1094 L 772 1080 L 753 1058 L 743 1030 L 744 1001 L 757 971 L 781 946 L 811 932 L 827 929 L 1194 928 L 1230 922 L 1252 915 L 1284 901 L 1298 890 Z M 246 1091 L 310 1112 L 369 1124 L 453 1134 L 538 1139 L 550 1165 L 429 1158 L 324 1141 L 273 1126 L 253 1117 L 240 1105 L 240 1099 L 246 1091 Z M 1272 1091 L 1276 1091 L 1281 1097 L 1283 1107 L 1275 1116 L 1248 1129 L 1200 1141 L 1172 1126 L 1175 1120 L 1227 1109 L 1272 1091 Z M 1298 1119 L 1301 1244 L 1266 1193 L 1226 1157 L 1277 1137 L 1298 1119 Z M 758 1475 L 758 1312 L 808 1317 L 1056 1317 L 1088 1326 L 1104 1336 L 1119 1351 L 1133 1380 L 1136 1399 L 1136 1473 L 758 1475 Z"/>
    <path id="Path 3" class="s3" d="m1029 414l-91 2v-29l9-100 19-77 14-31 14-22 36-36 29-16 30-9 63-1 23-4 26 2 27 14 37 44 24 7 15 11 7 18-1 22-9 14-21 2-26 15-26 1-17-7-6 1-3 8 5 6 21 7 28-1 15-6 12-9 6 1-3 9-13 13-38 16-48 4-65-1-21-3-27-9h-9l-4 9-9 13-11 32-9 49zm-469 723l-18-50-7-54 3-54 7-31 13-37 33-59 40-45 40-30 46-24 39-13 56-9 381-1 57-12 50-23 3 10v106l-5 1-19 19-28 16-30 11-35 6-377 2-36 10-23 13-22 20-15 21-13 37v51l7 24 22 33 10 9h8l28 22 39 14h247l43 5 41 12 31 13 51 33 28 28 20 28 10 20 16 50 2 36-8 39-15 29-25 27-21 14-17 7-9-9-2-60-16-55-22-34-18-17-27-16-26-9-29-5-287-2-52-9-44-15-44-24-30-23-24-24-16-22z"/>
    <path id="Path 4" class="s0" d="m895 639l-18 4h-237l-28-9-16-14h-89l-13-3-12-7-12-16-3-22 7-19 18-15 12-3h90l20-18 23-8h121 118l30 10 17 16h90l22 9 13 19 2 20-6 17-11 12-24 8h-87l-13 12z"/>
    <path id="Path 5" class="s4" d="m1029 414l3-41 9-49 11-32 9-13 16 11 37 8-13 51-3 61zm-282 670h-8l-10-9-22-33-7-24v-51l13-37 15-21 22-20 23-13 36-10 377-2 35-6 30-11 28-16 19-19 5-1v39l-9 17-14 13-22 12-44 13-32 4h-349l-27 4-21 8-24 16-17 18-13 23-6 18-2 34 3 15 12 28zm470 377l-25 10-36 3v-81l-5-24-17-32-15-15-25-15-38-10h-258l-64-11-61-26-42-29-37-38-21-30-13-26h11l16 22 24 24 30 23 44 24 44 15 52 9 287 2 29 5 26 9 27 16 18 17 22 34 16 55 2 60z"/>
    <path id="Path 6" class="s1" d="m645 529h228l24 9 15 17 104 1 11 9 2 18-9 13-11 4h-97l-14 15-20 8h-240l-18-8-15-15-102-1-12-9-3-17 4-10 13-8h100l19-20z"/>
    <path id="Path 7" class="s0" d="m1132 147l16 3 9 7 8 16v16l-11 18-14 6-15-2-15-12-6-16 2-16 8-12zm93 51l10 1 2 10-4 4-6-1-4-5z"/>
    <path id="Path 8" class="s5" d="m1127 163l8 1 2 7-4 5h-6l-4-5z"/>
  </g>
</svg>